PathFileType	4	(X/Y/Z)	s03c0103.trc
DataRate	CameraRate	NumFrames	NumMarkers	Units	OrigDataRate	OrigDataStartFrame	OrigNumFrames
200	200	4	50	mm	200	250	2000
Frame#	Time	racr			lacr			c7			jug			rlel			rdr			llel			ldr			s2			lic			ric			lasi			rasi			rpsi			lpsi			rgt			lgt			rth1			rth2			rth3			rth4			rlfc			rmfc			rsh1			rsh2			rsh3			rsh4			rlmal			rcal			rtoe			rmt5			rmt1			lth1			lth2			lth4			lth3			llfc			lmfc			lsh1			lsh2			lsh3			lsh4			llmal			lcal			ltoe			lmt1			lmt5			SBIKE			LBIKE			RBIKE			
		X1	Y1	Z1	X2	Y2	Z2	X3	Y3	Z3	X4	Y4	Z4	X5	Y5	Z5	X6	Y6	Z6	X7	Y7	Z7	X8	Y8	Z8	X9	Y9	Z9	X10	Y10	Z10	X11	Y11	Z11	X12	Y12	Z12	X13	Y13	Z13	X14	Y14	Z14	X15	Y15	Z15	X16	Y16	Z16	X17	Y17	Z17	X18	Y18	Z18	X19	Y19	Z19	X20	Y20	Z20	X21	Y21	Z21	X22	Y22	Z22	X23	Y23	Z23	X24	Y24	Z24	X25	Y25	Z25	X26	Y26	Z26	X27	Y27	Z27	X28	Y28	Z28	X29	Y29	Z29	X30	Y30	Z30	X31	Y31	Z31	X32	Y32	Z32	X33	Y33	Z33	X34	Y34	Z34	X35	Y35	Z35	X36	Y36	Z36	X37	Y37	Z37	X38	Y38	Z38	X39	Y39	Z39	X40	Y40	Z40	X41	Y41	Z41	X42	Y42	Z42	X43	Y43	Z43	X44	Y44	Z44	X45	Y45	Z45	X46	Y46	Z46	X47	Y47	Z47	X48	Y48	Z48	X49	Y49	Z49	X50	Y50	Z50	
250	1.2500	475.029444	1401.946793	-71.147461	476.849917	1415.501217	-394.224224	407.073799	1486.801120	-231.531632	440.914351	1320.354923	-231.321955	528.747858	1138.984160	6.676798	747.587863	946.488043	-43.660326	556.503577	1158.582885	-456.958397	797.962970	994.360686	-287.635099	-114.103634	1208.526150	-247.943457	81.100074	1205.843686	-424.753150	59.809309	1228.775008	-57.921197	86.144170	1127.742330	-389.947682	68.568295	1167.257348	-98.741721	-81.881930	1256.989161	-204.520914	-73.458884	1253.104179	-286.070495	-10.694095	1154.056259	-40.433523	1.712894	1098.989478	-442.580321	109.229813	1073.834569	-10.637262	198.071994	1075.728427	-6.142381	274.715341	1035.809597	-2.018030	207.202374	1108.418789	-21.830998	398.708291	976.144499	-18.214917	413.697601	965.465631	-145.143410	331.024609	823.513288	-9.666500	309.377668	740.204875	-32.520533	246.857450	677.862122	-40.940957	336.024827	731.026199	-58.977076	178.177339	565.512352	-72.601109	109.939186	521.816384	-115.832676	419.741016	517.549257	-121.968156	302.688382	499.685121	-50.568023	325.844209	515.424176	-165.623751	66.778535	952.246327	-467.141608	123.977637	886.706086	-471.055726	156.589805	903.357599	-466.927300	142.068268	799.947323	-461.264900	215.972024	692.559360	-444.832550	227.368957	683.770915	-322.986438	139.934456	536.036635	-461.829608	136.269552	453.524986	-442.841231	86.682608	377.304524	-430.901118	166.649943	446.044656	-418.797785	41.030447	259.078336	-405.326205	-23.839961	214.460548	-353.259110	283.899004	190.695320	-363.011560	193.145009	192.946298	-317.663514	161.832477	172.264591	-430.833481	-218.613444	943.600939	-235.030517	-11.970192	80.765206	-435.675094	-11.883434	80.814173	-35.003357	
251	1.2550	475.061027	1401.961683	-71.147888	476.857928	1415.502747	-394.231795	407.043969	1486.808739	-231.541202	440.949883	1320.373310	-231.328087	528.767364	1138.993269	6.670500	747.585371	946.485684	-43.698530	556.511553	1158.578968	-456.959762	797.947802	994.376091	-287.689297	-114.093411	1208.535326	-247.957068	81.099651	1205.832577	-424.753275	59.808845	1228.774786	-57.934588	86.171419	1127.738517	-389.935066	68.598899	1167.232764	-98.813940	-81.891995	1256.996770	-204.531846	-73.459447	1253.106904	-286.097977	-10.681270	1154.037134	-40.461047	1.728006	1098.975022	-442.570934	109.264325	1073.848491	-10.652917	198.093398	1075.732778	-6.148207	274.733545	1035.812907	-1.999714	207.200433	1108.437894	-21.822662	398.699519	976.145366	-18.205034	413.698401	965.464613	-145.140759	331.012128	823.518464	-9.659924	309.365645	740.214550	-32.516209	246.850032	677.884670	-40.945610	335.994241	731.048617	-58.999240	178.166990	565.536248	-72.613349	109.912159	521.831361	-115.837770	419.702329	517.567682	-121.960964	302.648784	499.708828	-50.560498	325.802690	515.440452	-165.618281	66.774993	952.240103	-467.133087	123.987206	886.697595	-471.056683	156.598381	903.353619	-466.920768	142.070225	799.938100	-461.249415	215.958848	692.553552	-444.809185	227.365458	683.754328	-322.984495	139.938132	536.019479	-461.822085	135.761295	452.501170	-440.977342	86.711298	377.291457	-430.897702	166.722464	446.086135	-418.949037	41.051324	259.024957	-405.281572	-23.811044	214.434425	-353.269396	283.942229	190.698919	-363.028282	193.170457	192.912521	-317.646348	161.856713	172.242051	-430.848215	-218.622117	943.588989	-235.028689	-11.976452	80.783867	-435.676243	-11.880124	80.805723	-35.022379	
252	1.2600	475.091982	1401.980854	-71.179923	476.876873	1415.510166	-394.251926	407.059190	1486.830228	-231.557082	440.987621	1320.393993	-231.370343	528.783738	1139.003743	6.667246	747.602653	946.484108	-43.680674	556.511762	1158.560396	-456.962100	797.992457	994.377205	-287.695429	-114.090492	1208.540460	-247.972530	81.132468	1205.853969	-424.782099	59.793377	1228.802286	-57.930091	86.189707	1127.735035	-389.943783	68.572829	1167.255815	-98.783733	-81.885088	1256.983085	-204.549987	-73.439319	1253.105845	-286.125539	-10.696421	1154.098211	-40.439017	1.746290	1098.985912	-442.583848	109.220964	1073.869078	-10.642250	198.081104	1075.745142	-6.143598	274.719713	1035.824897	-1.995950	207.222431	1108.444881	-21.818862	398.694294	976.152128	-18.190395	413.686528	965.464519	-145.145153	331.026948	823.520918	-9.650019	309.360850	740.223399	-32.516456	246.819478	677.898823	-40.938367	335.956396	731.055440	-58.992832	178.125793	565.562635	-72.602403	109.872155	521.863743	-115.825054	419.650745	517.585603	-121.972326	302.603197	499.742521	-50.564393	325.753913	515.449983	-165.625263	66.796421	952.242511	-467.137711	123.985906	886.688317	-471.056810	156.619786	903.340188	-466.904763	142.064804	799.916269	-461.254975	215.979867	692.551401	-444.794663	227.353377	683.758479	-322.967935	139.954961	536.014985	-461.818963	135.777649	452.507077	-440.966843	86.746315	377.270219	-430.901609	166.750004	446.032950	-418.952205	41.064448	258.975371	-405.260360	-23.768688	214.407190	-353.277269	283.991778	190.668096	-363.011782	193.209558	192.907675	-317.655684	161.902988	172.227284	-430.849765	-218.612902	943.587466	-235.020154	-11.978388	80.767303	-435.676367	-11.868286	80.816774	-35.013696	
253	1.2650	475.128513	1401.982154	-71.169228	476.911838	1415.520090	-394.263542	407.056438	1486.837468	-231.568359	441.023153	1320.412380	-231.376475	528.801446	1139.012348	6.658930	747.601047	946.481589	-43.699312	556.515239	1158.566421	-457.005595	798.025100	994.362997	-287.644325	-114.096829	1208.543690	-247.981484	81.137343	1205.827295	-424.790577	59.773483	1228.809566	-57.936034	86.207870	1127.735455	-389.936443	68.572469	1167.257747	-98.819536	-81.888023	1256.998786	-204.572664	-73.442513	1253.115699	-286.146475	-10.683168	1154.117565	-40.446379	1.758305	1098.975508	-442.604115	109.233511	1073.886948	-10.668699	198.083922	1075.761608	-6.128879	274.782014	1035.811527	-2.185503	207.207229	1108.457890	-21.809486	398.697403	976.160076	-18.188577	413.694939	965.478955	-145.124487	331.010399	823.540087	-9.665819	309.348616	740.231823	-32.516229	246.797782	677.911881	-40.930684	335.952700	731.071428	-58.993162	178.067850	565.597132	-72.584391	109.816220	521.900031	-115.804185	419.613913	517.588718	-121.971989	302.554792	499.757508	-50.551609	325.708269	515.471428	-165.622322	66.818118	952.227985	-467.112912	124.000656	886.678677	-471.039854	156.635845	903.332387	-466.903253	142.018807	799.857317	-461.278550	215.983767	692.544368	-444.763747	227.336860	683.757435	-322.935860	139.978855	535.993568	-461.801744	136.331243	453.470938	-442.824913	86.778335	377.247497	-430.903815	166.704676	446.005505	-418.768569	41.101032	258.962694	-405.262003	-23.740268	214.374232	-353.269001	284.125322	190.648021	-362.945363	193.250316	192.906724	-317.687140	161.943791	172.214482	-430.847651	-218.610286	943.581851	-234.987217	-11.969860	80.784687	-435.669627	-11.883770	80.809866	-35.012179	
